<svg height="512" width="512">
    <path d="M 206.500 266.097 C 204.300 266.574, 197.706 267.600, 191.848 268.378 C 185.989 269.155, 180.479 270.192, 179.603 270.682 C 178.727 271.173, 174.431 275.088, 170.056 279.383 C 161.421 287.860, 162.096 286.352, 158.975 304.159 C 157.822 310.736, 158.252 315, 160.067 315 C 160.580 315, 161 316.475, 161 318.278 C 161 320.117, 161.768 322.265, 162.750 323.171 C 163.713 324.060, 165.973 326.356, 167.773 328.273 C 169.573 330.190, 172.273 332.033, 173.773 332.367 C 175.273 332.702, 177.344 333.635, 178.377 334.441 C 180.171 335.842, 180.079 336.103, 176.252 340.451 C 171.874 345.425, 171 348.217, 171 357.231 C 171 361.927, 171.483 363.819, 173.250 366.043 C 174.488 367.601, 176.308 370.027, 177.295 371.435 C 178.282 372.843, 180.504 374.726, 182.232 375.620 C 186.184 377.664, 201.223 378.726, 204.297 377.178 C 208.868 374.877, 218.707 372.175, 224.238 371.702 C 227.393 371.433, 231.287 370.377, 232.890 369.356 C 236.133 367.292, 247.680 350.708, 251.045 343.283 C 252.699 339.631, 253.324 335.900, 253.688 327.500 C 254.120 317.512, 254.425 316.104, 257.003 312.198 C 260.570 306.793, 261.451 301.725, 259.920 295.425 C 258.579 289.904, 256.455 287.141, 250.250 282.846 C 247.912 281.228, 246 279.303, 246 278.570 C 246 276.736, 238.145 269.027, 236.132 268.885 C 235.235 268.822, 231.800 268.833, 228.500 268.911 C 223.072 269.039, 216.120 267.454, 214.352 265.685 C 213.526 264.860, 211.788 264.951, 206.500 266.097" stroke="none" fill="black" fill-rule="evenodd"/>
</svg> 